<svg id="Layer_1" data-name="Layer 1" xmlns="http://www.w3.org/2000/svg" width="794.7" height="274" viewBox="0 0 794.7 274">
  <defs>
    <style>
      .cls-1 {
        isolation: isolate;
      }

      .cls-2, .cls-3 {
        fill: #fff;
      }

      .cls-3 {
        fill-rule: evenodd;
      }
    </style>
  </defs>
  <g id="Layer_1-2" data-name="Layer 1">
    <g class="cls-1">
      <path class="cls-2" d="M289.3,373.5c2.8,0,5.6-.1,8.4-.1h14.9a81.07,81.07,0,0,1,11.8.8,28.79,28.79,0,0,1,8.7,2.6,18.1,18.1,0,0,1,6.1,4.7,22.79,22.79,0,0,1,3.8,7.1,48.65,48.65,0,0,1,2,9.7,119,119,0,0,1,.6,12.7,127,127,0,0,1-.6,13.1,43,43,0,0,1-2.1,9.9,19.53,19.53,0,0,1-4.2,7,18.83,18.83,0,0,1-6.7,4.5,39.4,39.4,0,0,1-9.6,2.5,100.46,100.46,0,0,1-13.1.7h-4.9c-1.7,0-3.3-.1-4.8-.1s-3-.1-4.4-.2-2.5-.2-3.5-.2c-1.4,0-2.1-.8-2.1-2.3V373.5Zm7.9,67.9c1.4,0,2.9.1,4.5.1,1.4,0,3,.1,4.7.1h5.5a74.82,74.82,0,0,0,8.8-.5,19.82,19.82,0,0,0,6.6-1.8,13.79,13.79,0,0,0,4.7-3.5,15.44,15.44,0,0,0,3-5.7,42.18,42.18,0,0,0,1.6-8.3c.3-3.2.5-7,.5-11.3s-.2-8.1-.5-11.3a36,36,0,0,0-1.6-8.3,14.23,14.23,0,0,0-3-5.6,13.79,13.79,0,0,0-4.7-3.5,24.43,24.43,0,0,0-6.6-1.8,76.15,76.15,0,0,0-8.8-.5h-4.6c-1.7,0-3.3,0-4.8.1-1.8,0-3.5.1-5.3.1v61.7Z" transform="translate(-23.2 -175.3)"/>
      <path class="cls-2" d="M396,446.5c-1.6.5-3.3.9-5.1,1.3-1.5.3-3.1.6-5,.9a33.17,33.17,0,0,1-5.3.4c-8.6,0-15.1-2.4-19.2-7.1s-6.2-11.5-6.2-20.4a41.3,41.3,0,0,1,1.5-11.6,24,24,0,0,1,4.3-8.6,18.69,18.69,0,0,1,7.1-5.3,24.33,24.33,0,0,1,9.7-1.8,25.48,25.48,0,0,1,8.6,1.3,20,20,0,0,1,6.6,3.6,15.68,15.68,0,0,1,5.7,12.3,16,16,0,0,1-1.2,6.5,12.38,12.38,0,0,1-3.4,4.7,17.58,17.58,0,0,1-7.6,3.8,46.75,46.75,0,0,1-10.4,1.1c-1.9,0-3.5-.1-5.1-.2a36.23,36.23,0,0,1-4-.5,32.87,32.87,0,0,1-3.6-.7,25.4,25.4,0,0,0,1.9,8.2,12.19,12.19,0,0,0,4,5.1,15.28,15.28,0,0,0,5.9,2.7,35.72,35.72,0,0,0,7.7.8c1.1,0,2.3-.1,3.7-.2s2.7-.3,4-.5c1.5-.2,3-.5,4.5-.8Zm-32.8-26.3a20.85,20.85,0,0,0,4.8,1.2,49.13,49.13,0,0,0,7.3.5,28.79,28.79,0,0,0,8.7-1,9.06,9.06,0,0,0,4.7-3.1,6.45,6.45,0,0,0,1.2-2.8,17.53,17.53,0,0,0,.4-3.3,13.27,13.27,0,0,0-.7-4.5,9.6,9.6,0,0,0-2.3-3.7,10.89,10.89,0,0,0-4-2.5,16.83,16.83,0,0,0-5.8-.9,12.93,12.93,0,0,0-5.1.9,12.3,12.3,0,0,0-3.8,2.4,12.77,12.77,0,0,0-2.6,3.5,21.74,21.74,0,0,0-1.7,4.2,35.83,35.83,0,0,0-.9,4.5C363.3,417.3,363.2,418.8,363.2,420.2Z" transform="translate(-23.2 -175.3)"/>
      <path class="cls-2" d="M447.1,447.9a5.39,5.39,0,0,1-2.2-.3,2.59,2.59,0,0,1-1.1-1,15.14,15.14,0,0,1-.9-1.4,1.1,1.1,0,0,0-1-.5,3,3,0,0,0-1,.2,8.76,8.76,0,0,0-1.2.7A17.07,17.07,0,0,1,437,447a28.27,28.27,0,0,1-3.1,1.1,18.63,18.63,0,0,1-3.4.7,20.41,20.41,0,0,1-3.4.3c-6.3,0-11-1.4-14.1-4.3s-4.7-7.3-4.7-13.3V395.4h5.4c1.4,0,2.1.8,2.1,2.3v31.8a24.93,24.93,0,0,0,.6,5.9,9,9,0,0,0,2.1,4,8.32,8.32,0,0,0,3.9,2.2,21.31,21.31,0,0,0,6.1.7,21.85,21.85,0,0,0,4.7-.5,23.6,23.6,0,0,0,3.7-1.1,17.14,17.14,0,0,0,2.7-1.3,14.17,14.17,0,0,0,1.6-1.1,3.53,3.53,0,0,0,.9-1,3.78,3.78,0,0,0,.1-1.2V395.5h5.4c1.4,0,2.1.8,2.1,2.3v50.1Z" transform="translate(-23.2 -175.3)"/>
      <path class="cls-2" d="M489.1,448.3a23.52,23.52,0,0,1-4.2.6c-1.6.1-3.2.2-4.8.2a20.39,20.39,0,0,1-6.5-.9,9.72,9.72,0,0,1-4.4-2.9,12.39,12.39,0,0,1-2.5-5,31.6,31.6,0,0,1-.8-7.4V401.4h-7.7v-5.9h7.7V384.1l7.5-2.2v13.6h14.1v5.9H473.4v32a18.86,18.86,0,0,0,.4,4.4,6.77,6.77,0,0,0,1.3,3.1,5.38,5.38,0,0,0,2.7,1.8,13.33,13.33,0,0,0,4.4.6h2.3c.8,0,1.5-.1,2.1-.1s1.4-.1,2.1-.2Z" transform="translate(-23.2 -175.3)"/>
      <path class="cls-2" d="M495.7,441.1q1.95.45,4.2.9,2,.3,4.5.6a47,47,0,0,0,5.4.2c4,0,7-.7,9.1-2.1s3.2-3.7,3.2-6.9a11.49,11.49,0,0,0-.4-3.3,6.19,6.19,0,0,0-1.7-2.6,10.91,10.91,0,0,0-3.4-2,29.64,29.64,0,0,0-5.7-1.4,54.79,54.79,0,0,1-7.1-1.5,16.78,16.78,0,0,1-5.2-2.5,10.34,10.34,0,0,1-3.2-4,15.13,15.13,0,0,1-1.1-6.1,23,23,0,0,1,.8-5.7,11.68,11.68,0,0,1,3.1-5.2,16.5,16.5,0,0,1,6.2-3.9,29.51,29.51,0,0,1,10.3-1.5,36.24,36.24,0,0,1,8.1.8,46,46,0,0,1,5.3,1.5l-1.9,4.8a7.64,7.64,0,0,1-.8,1.6,1.05,1.05,0,0,1-.9.5.9.9,0,0,1-.5-.1,2.09,2.09,0,0,1-.6-.4,4.37,4.37,0,0,0-1-.6c-.4-.2-1-.5-1.7-.8a15.9,15.9,0,0,0-5.9-.9,24.93,24.93,0,0,0-5.9.6,10.08,10.08,0,0,0-3.9,1.8,6.31,6.31,0,0,0-2.1,2.8,11.22,11.22,0,0,0-.6,3.8,9.64,9.64,0,0,0,.8,4.1,6.36,6.36,0,0,0,2.4,2.5,17.63,17.63,0,0,0,3.9,1.5,48.78,48.78,0,0,0,5.3,1.1,36.7,36.7,0,0,1,7,2,14.08,14.08,0,0,1,4.8,3,10.71,10.71,0,0,1,2.8,4.2,15.47,15.47,0,0,1,.9,5.5c0,5.1-1.6,9.1-4.9,11.8s-8.5,4.1-15.6,4.1a31.15,31.15,0,0,1-5.2-.4,33,33,0,0,1-4.9-.9c-1.7-.4-3.4-.8-5-1.2Z" transform="translate(-23.2 -175.3)"/>
      <path class="cls-2" d="M575.4,446.7c-1.3.4-2.8.8-4.3,1.2a45.59,45.59,0,0,1-4.7.8,49.33,49.33,0,0,1-5.7.4,25.4,25.4,0,0,1-9.4-1.6,18.85,18.85,0,0,1-7.2-4.9,23.05,23.05,0,0,1-4.6-8.5,40.35,40.35,0,0,1-1.6-12.3,39.67,39.67,0,0,1,1.8-12.7,21.7,21.7,0,0,1,5.1-8.5,19.66,19.66,0,0,1,7.6-4.8,29.11,29.11,0,0,1,9.5-1.5,38.56,38.56,0,0,1,8.2.8,48.42,48.42,0,0,1,5.4,1.5l-2,4.8a15.12,15.12,0,0,1-.9,1.6,1,1,0,0,1-.8.5.75.75,0,0,1-.5-.1,1.63,1.63,0,0,0-.6-.3,9.22,9.22,0,0,1-.8-.5c-.3-.2-.8-.4-1.4-.7a11,11,0,0,0-2.7-.8,19.82,19.82,0,0,0-3.6-.4,20.8,20.8,0,0,0-6.9,1.1,11.61,11.61,0,0,0-5.1,3.7,17,17,0,0,0-3.2,6.6,39.53,39.53,0,0,0-1.1,9.8,40,40,0,0,0,.9,8.9,16.71,16.71,0,0,0,3,6.6,12.68,12.68,0,0,0,5.3,4.1,22.8,22.8,0,0,0,8,1.5c1.2,0,2.5-.1,3.8-.2a34.77,34.77,0,0,0,3.6-.5c1.3-.2,2.6-.4,3.8-.7Z" transform="translate(-23.2 -175.3)"/>
      <path class="cls-2" d="M622.1,447.9a2.17,2.17,0,0,1-1.6-.5,3,3,0,0,1-.5-1.8V413.8a24.93,24.93,0,0,0-.6-5.9,9,9,0,0,0-2.1-4,7.47,7.47,0,0,0-4-2.2,22.53,22.53,0,0,0-6.2-.7,23.84,23.84,0,0,0-4.9.5,25.09,25.09,0,0,0-3.8,1.1,17.14,17.14,0,0,0-2.7,1.3,8.55,8.55,0,0,0-1.6,1.1,3.81,3.81,0,0,0-.6.5c-.1.1-.3.3-.3.4a.75.75,0,0,0-.1.5v41.4h-5.4c-1.4,0-2.1-.8-2.1-2.3V373.8H591a2.17,2.17,0,0,1,1.6.5,3,3,0,0,1,.5,1.8v20c0,1.4.3,2.1,1,2.1a3.19,3.19,0,0,0,1.6-.6,46.25,46.25,0,0,1,5.8-2.4,23.62,23.62,0,0,1,7.2-1.1c6.4,0,11.1,1.4,14.3,4.2s4.7,7.2,4.7,13.2v36.1h-5.6Z" transform="translate(-23.2 -175.3)"/>
      <path class="cls-2" d="M658.6,447.9a33.31,33.31,0,0,1-3.8.5c-1.1.1-2.3.1-3.7.1a10.77,10.77,0,0,1-5.1-1,7.15,7.15,0,0,1-3.3-2.9,13,13,0,0,1-1.7-4.8,42.66,42.66,0,0,1-.5-6.7V373.7h5.4a2.17,2.17,0,0,1,1.6.5,3,3,0,0,1,.5,1.8v57.6c0,1.6.1,2.9.2,4a10.24,10.24,0,0,0,.9,2.8A4.31,4.31,0,0,0,651,442a8.72,8.72,0,0,0,3.1.5h1.2c.3,0,.7-.1,1.1-.1a14.93,14.93,0,0,0,1.7-.2Z" transform="translate(-23.2 -175.3)"/>
      <path class="cls-2" d="M704.8,447.9a6.33,6.33,0,0,1-2.3-.3,2.59,2.59,0,0,1-1.1-1,15.14,15.14,0,0,1-.9-1.4,1.23,1.23,0,0,0-1-.5,3,3,0,0,0-1,.2,8.76,8.76,0,0,0-1.2.7,17.07,17.07,0,0,1-2.7,1.4,28.27,28.27,0,0,1-3.1,1.1,19.72,19.72,0,0,1-3.5.7,21.86,21.86,0,0,1-3.6.3,20.82,20.82,0,0,1-8.3-1.6,19.07,19.07,0,0,1-6.8-4.9,23.61,23.61,0,0,1-4.5-8.5,40.13,40.13,0,0,1-1.7-12.3,38.17,38.17,0,0,1,1.8-12.4,25.37,25.37,0,0,1,4.8-8.6,19,19,0,0,1,6.8-5,19.93,19.93,0,0,1,7.9-1.6,21.86,21.86,0,0,1,3.6.3c1.2.2,2.3.4,3.5.7a22.39,22.39,0,0,1,3.1,1.1,17.07,17.07,0,0,1,2.7,1.4,8.76,8.76,0,0,0,1.2.7,3,3,0,0,0,1,.2,1.1,1.1,0,0,0,1-.5,15.14,15.14,0,0,1,.9-1.4,2.59,2.59,0,0,1,1.1-1,6,6,0,0,1,2.3-.3h2.8v52.4h-2.8Zm-4.7-40.6v-.7c0-.2-.1-.3-.1-.5s-.2-.3-.3-.4-.4-.3-.7-.6a7.25,7.25,0,0,0-1.5-1.1,19.05,19.05,0,0,0-2.5-1.3,22.67,22.67,0,0,0-3.4-1.1,18.59,18.59,0,0,0-4.2-.5,19,19,0,0,0-6.3,1.1,12,12,0,0,0-5.1,3.5,17.75,17.75,0,0,0-3.5,6.4,34.21,34.21,0,0,0-1.3,9.8c0,6.8,1.3,11.9,3.9,15.4s6.5,5.2,11.8,5.2a21.17,21.17,0,0,0,8.1-1.6,19.05,19.05,0,0,0,2.5-1.3,7.25,7.25,0,0,0,1.5-1.1,3.61,3.61,0,0,0,.9-.9,2.87,2.87,0,0,0,.2-1.2V407.3Z" transform="translate(-23.2 -175.3)"/>
      <path class="cls-2" d="M757.8,447.9a2.17,2.17,0,0,1-1.6-.5,3,3,0,0,1-.5-1.8V413.8a24.93,24.93,0,0,0-.6-5.9,9,9,0,0,0-2.1-4,7.47,7.47,0,0,0-4-2.2,22.53,22.53,0,0,0-6.2-.7,23.84,23.84,0,0,0-4.9.5,25.09,25.09,0,0,0-3.8,1.1,17.14,17.14,0,0,0-2.7,1.3,8.55,8.55,0,0,0-1.6,1.1,3.81,3.81,0,0,0-.6.5c-.1.1-.3.3-.3.4a.75.75,0,0,0-.1.5v41.4H723c-1.4,0-2.1-.8-2.1-2.3V395.4h2.9a5.39,5.39,0,0,1,2.2.3,2.59,2.59,0,0,1,1.1,1,15.14,15.14,0,0,1,.9,1.4c.2.4.5.5,1,.5a3.59,3.59,0,0,0,1.1-.2,8.76,8.76,0,0,0,1.2-.7,20.66,20.66,0,0,1,5.8-2.4,23.7,23.7,0,0,1,7-1c6.4,0,11.1,1.4,14.3,4.2s4.7,7.2,4.7,13.2v36.1h-5.3Z" transform="translate(-23.2 -175.3)"/>
      <path class="cls-2" d="M815.1,447.9a6.33,6.33,0,0,1-2.3-.3,2.59,2.59,0,0,1-1.1-1,15.14,15.14,0,0,1-.9-1.4,1.23,1.23,0,0,0-1-.5,3,3,0,0,0-1,.2,8.76,8.76,0,0,0-1.2.7,17.07,17.07,0,0,1-2.7,1.4,28.27,28.27,0,0,1-3.1,1.1,19.72,19.72,0,0,1-3.5.7,21.86,21.86,0,0,1-3.6.3,20.82,20.82,0,0,1-8.3-1.6,19.07,19.07,0,0,1-6.8-4.9,23.61,23.61,0,0,1-4.5-8.5,40.13,40.13,0,0,1-1.7-12.3,38.17,38.17,0,0,1,1.8-12.4,25.37,25.37,0,0,1,4.8-8.6,19,19,0,0,1,6.8-5,19.93,19.93,0,0,1,7.9-1.6,23.8,23.8,0,0,1,7.3,1.1,34.93,34.93,0,0,1,5.8,2.4,4,4,0,0,0,1.6.6c.7,0,1-.7,1-2.1V373.9h5.4a2.17,2.17,0,0,1,1.6.5,3,3,0,0,1,.5,1.8v71.7Zm-4.7-40.6v-.7c0-.2-.1-.3-.1-.5s-.2-.3-.3-.4-.4-.3-.7-.6a7.25,7.25,0,0,0-1.5-1.1,19.05,19.05,0,0,0-2.5-1.3,22.67,22.67,0,0,0-3.4-1.1,18.59,18.59,0,0,0-4.2-.5,19,19,0,0,0-6.3,1.1,12,12,0,0,0-5.1,3.5,17.75,17.75,0,0,0-3.5,6.4,34.21,34.21,0,0,0-1.3,9.8c0,6.8,1.3,11.9,3.9,15.4s6.5,5.2,11.8,5.2a21.17,21.17,0,0,0,8.1-1.6,19.05,19.05,0,0,0,2.5-1.3,7.25,7.25,0,0,0,1.5-1.1,3.61,3.61,0,0,0,.9-.9,2.87,2.87,0,0,0,.2-1.2V407.3Z" transform="translate(-23.2 -175.3)"/>
    </g>
    <path class="cls-3" d="M208.5,257.7a14.13,14.13,0,0,1-14.2,14.2,6.94,6.94,0,0,1-6.8-6.8c0-3.5,1.9-3.6,1.9-5.9a3.29,3.29,0,0,0-3.2-3.2,5.1,5.1,0,0,0-5.2,5.2v36.7a1.28,1.28,0,0,0,1.1,1.2l3.6,1.1c.5.1,1.2.5,1.2,1.2v2.9a1.16,1.16,0,0,1-1.2,1.2H162.4a1.16,1.16,0,0,1-1.2-1.2V287.7c-6.6,6.8-19.9,19.6-26.9,19.6-7.7,0-6.7-8.3-12.5-8.3-5,0-5.4,8.3-19.4,8.3-15.1,0-27.5-14.2-27.5-31.9s12.3-31.9,27.5-31.9c12.4,0,15.2,6.7,18.2,6.7,1.9,0,2.7-1.5,3.1-3.6a1.43,1.43,0,0,1,1.5-1.2h19.4a1.16,1.16,0,0,1,1.2,1.2v3c0,.7-.7,1-1.2,1.2l-3.6,1.1c-.5.2-1.1.5-1.1,1.2v32.4a4.17,4.17,0,0,0,4.2,3.9c3.9,0,12.2-6.9,17.2-11.3V255.2a2,2,0,0,0-2.3-2.1c-1.5,0-1.5,1.3-3.4,1.3a2.79,2.79,0,0,1-2.8-2.8c0-2.5,4.6-8,11.7-8,12.3,0,10.4,9.1,14.7,9.1,4,0,4.6-9.1,15.4-9.1A14,14,0,0,1,208.5,257.7Zm-88.6,8.1c0-4-5.5-8-10.6-8-9.4,0-15.4,7.4-15.4,17.8s6,18,15.4,18c5.1,0,10.6-4,10.6-8Zm94.8,19.7c0,15.6,11.9,20.1,19.8,20.1h40.7c9.2,0,18-6.7,18-17.6,0-16.4-25.3-14.9-25.3-24.4,0-3.8,3.7-5.2,8.3-5.2a21.66,21.66,0,0,1,10.9,3.5,1.2,1.2,0,0,0,1.9-.5l6.2-14.3a1.15,1.15,0,0,0-1.1-1.6H264.9c-8,0-15,6.9-15,15.4,0,16.9,22,13.9,22,25.4a8.24,8.24,0,0,1-8.5,8.2c-9.7,0-13.8-6.5-14.2-10.2a1.4,1.4,0,0,0-1.7-1l-4,1.6a1.29,1.29,0,0,0-.5,1.9,4.43,4.43,0,0,1,1.1,3,4.74,4.74,0,0,1-4.8,4.8,4.86,4.86,0,0,1-4.8-4.8V205.7a1.16,1.16,0,0,0-1.2-1.2H210a1.16,1.16,0,0,0-1.2,1.2v2.9c0,.7.7,1.1,1.2,1.2l3.6,1.1a1.28,1.28,0,0,1,1.1,1.2v73.4Zm328.5-38.8v2.9c0,.7-.7,1.1-1.2,1.2l-3.6,1.1c-.5.2-1.1.5-1.1,1.2v61.7c0,15-12.7,27.1-27.6,27.1-10.2,0-19.2-4.7-23.7-12.5-6.2,11-26.1,34.6-84.3,34.6-32,0-86.5-15.8-114.7-15.8-38.8,0-64.5,10.5-91.1,37.3a1.31,1.31,0,0,1-1.9.3l-49.7-27.1a1.24,1.24,0,0,1-.3-1.9c32.9-27.9,80.4-42.2,114.1-42.2,65.8,0,111.6,32.6,165.7,32.6,45.6,0,58.8-22.8,58.8-30.4a1.21,1.21,0,0,1,1.2-1.2h4.6a1.21,1.21,0,0,1,1.2,1.2c0,7.6,6.3,13.4,14.2,13.4s13.8-6.2,13.8-14.5V303.9a1.9,1.9,0,0,0-2.1-2.1c-2.1,0-4.1,5.7-15.6,5.7-15.1,0-27.5-14.2-27.5-31.9s12.3-31.9,27.5-31.9c12.4,0,15.2,6.7,18.2,6.7,1.9,0,2.7-1.5,3.1-3.6a1.43,1.43,0,0,1,1.5-1.2H542A1.08,1.08,0,0,1,543.2,246.7Zm-25.7,19.1c0-4-5.5-8-10.6-8-9.4,0-15.4,7.4-15.4,17.8s6,18,15.4,18c5.1,0,10.6-4,10.6-8Zm-39.8-23.5c0,12.3-7.8,18.9-14.2,18.9-7.6,0-6.6-5.2-11.5-5.2a5.52,5.52,0,0,0-5.6,5.2v36.7a1.2,1.2,0,0,0,1.1,1.2l3.6,1.1c.5.1,1.2.5,1.2,1.2v3a1.16,1.16,0,0,1-1.2,1.2H427.8a1.16,1.16,0,0,1-1.2-1.2V261.8c0-3.4-2.1-4.8-4.8-4.8-2.5,0-6.3,2.2-9.8,4.6-.3,13.2-12.1,23.2-30.6,23.2,0,2.5,5.8,11.9,17.1,11.9,6.7,0,11.7-2.4,15.2-7,1.6-2.1,5.4-1.3,3.6,2.9-1.7,4-9.7,14.9-25.9,14.9a31.85,31.85,0,0,1-31.2-25.1,39.17,39.17,0,0,1-10.1-4.6V289c0,9.5-6.6,16.6-16.9,16.6h-9.6c-14.2,0-23-7.9-23-20.3V212.1a1.28,1.28,0,0,0-1.1-1.2l-3.6-1.1c-.5-.2-1.2-.5-1.2-1.2v-2.9a1.16,1.16,0,0,1,1.2-1.2h23.3a1.16,1.16,0,0,1,1.2,1.2v81.4c0,5.9,5.8,8.4,9.9,8.4,4.6,0,9.9-1.7,9.9-8V271.4l-8-4.8a3.28,3.28,0,0,1-1.9-3.1V246.7a1.16,1.16,0,0,1,1.2-1.2h17.4a1.16,1.16,0,0,1,1.2,1.2v22.7a59.12,59.12,0,0,0,9.4,5.1,31.72,31.72,0,0,1,31.9-30.9c9.8,0,16,4.6,18.8,10.2,5.8-4.5,14.6-10.2,21.7-10.2,8,0,8,6.6,11.9,6.6a2.55,2.55,0,0,0,2.4-2.6c0-1.6-.8-2.9-.8-4.4,0-3,2.9-5.6,6.2-5.6,5.8,0,9.1,6,14.1,6,2.1,0,4.7-2.2,4.7-5.4s-3.5-7.9-7-10.7c-2.3-1.9.2-5.5,3.2-3.8C473.9,228.1,477.7,234.7,477.7,242.3Zm-77.5,19.5c0-1.7-.6-6.2-6.2-6.2-6.7,0-13.8,8-13.8,21.6C393.2,277.2,400.2,266.8,400.2,261.8Zm50.5-74.5a2.78,2.78,0,0,1-2.8-2.7V179a3.69,3.69,0,0,0-3.7-3.7,3.49,3.49,0,0,0-2.2.8,8.67,8.67,0,0,1-8.5,1.3,5.59,5.59,0,0,0-6.8,2.3,5.38,5.38,0,0,0,1.3,7,8.79,8.79,0,0,1,3.2,8,4.09,4.09,0,0,0,.4,2.4,3.62,3.62,0,0,0,5,1.3l4.8-2.8a2.79,2.79,0,0,1,3.8,1,2.65,2.65,0,0,1-1,3.7l-4.8,2.8a3.54,3.54,0,0,0-1.3,5,3.28,3.28,0,0,0,1.8,1.5,8.82,8.82,0,0,1,5.4,6.8,5.57,5.57,0,0,0,5.4,4.7,5.41,5.41,0,0,0,5.4-4.7,9,9,0,0,1,5.4-6.8,3.76,3.76,0,0,0,1.8-1.5,3.71,3.71,0,0,0-1.3-5l-4.8-2.8a2.71,2.71,0,1,1,2.7-4.7l4.8,2.8a3.69,3.69,0,0,0,5-1.3,4,4,0,0,0,.4-2.4,8.56,8.56,0,0,1,3.2-8,5.4,5.4,0,0,0,1.3-7,5.48,5.48,0,0,0-6.8-2.3,8.67,8.67,0,0,1-8.5-1.3,3.57,3.57,0,0,0-2.3-.8,3.69,3.69,0,0,0-3.7,3.7v5.6A2.49,2.49,0,0,1,450.7,187.3ZM160.2,313.4c-10.9,10.1-26.7,16.3-42.8,16.3-33.9,0-62.3-27.9-62.3-61.6,0-27.9,22.4-56,50.5-56,10.2,0,21.2,4.1,27.7,10.6a1.34,1.34,0,0,0,2-.1l34.5-45.4a1.13,1.13,0,0,0-.8-1.9H65.5a4.3,4.3,0,0,0-2.8,1.1c-23.9,21.4-39.5,49.3-39.5,81.5,0,47.6,38.1,84.5,83,84.5,22.4,0,43.6-9.9,58.3-24.6C167.9,314.4,163.8,310.1,160.2,313.4Z" transform="translate(-23.2 -175.3)"/>
  </g>
</svg>
